HIERARCHY
ROOT root
{
	OFFSET 0.000000 0.000000 0.000000
	CHANNELS 6 Xposition Yposition Zposition Zrotation Yrotation Xrotation
	JOINT lhip
	{
		OFFSET 0.058581 -0.082280 -0.017664
		CHANNELS 3 Zrotation Yrotation Xrotation
		JOINT lknee
		{
			OFFSET 0.043451 -0.386469 0.008037
			CHANNELS 3 Zrotation Yrotation Xrotation
			JOINT lankle
			{
				OFFSET -0.014790 -0.426874 -0.037428
				CHANNELS 3 Zrotation Yrotation Xrotation
				JOINT ltoe
				{
					OFFSET 0.041054 -0.060286 0.122042
					CHANNELS 3 Zrotation Yrotation Xrotation
					End Site
					{
						OFFSET 0.000000 0.000000 0.000000
					}
				}
			}
		}
	}
	JOINT rhip
	{
		OFFSET -0.060310 -0.090513 -0.013543
		CHANNELS 3 Zrotation Yrotation Xrotation
		JOINT rknee
		{
			OFFSET -0.043257 -0.383688 -0.004843
			CHANNELS 3 Zrotation Yrotation Xrotation
			JOINT rankle
			{
				OFFSET 0.019056 -0.420046 -0.034562
				CHANNELS 3 Zrotation Yrotation Xrotation
				JOINT rtoe
				{
					OFFSET -0.034840 -0.062106 0.130323
					CHANNELS 3 Zrotation Yrotation Xrotation
					End Site
					{
						OFFSET 0.000000 0.000000 0.000000
					}
				}
			}
		}
	}
	JOINT lowerback
	{
		OFFSET 0.004439 0.124404 -0.038385
		CHANNELS 3 Zrotation Yrotation Xrotation
		JOINT upperback
		{
			OFFSET 0.004488 0.137956 0.026820
			CHANNELS 3 Zrotation Yrotation Xrotation
			JOINT chest
			{
				OFFSET -0.002265 0.056032 0.002855
				CHANNELS 3 Zrotation Yrotation Xrotation
				JOINT lowerneck
				{
					OFFSET -0.013390 0.211636 -0.033468
					CHANNELS 3 Zrotation Yrotation Xrotation
					JOINT upperneck
					{
						OFFSET 0.010113 0.088937 0.050410
						CHANNELS 3 Zrotation Yrotation Xrotation
						End Site
						{
							OFFSET 0.000000 0.000000 0.000000
						}
					}
				}
				JOINT lclavicle
				{
					OFFSET 0.071702 0.114000 -0.018898
					CHANNELS 3 Zrotation Yrotation Xrotation
					JOINT lshoulder
					{
						OFFSET 0.122921 0.045205 -0.019046
						CHANNELS 3 Zrotation Yrotation Xrotation
						JOINT lelbow
						{
							OFFSET 0.255332 -0.015649 -0.022946
							CHANNELS 3 Zrotation Yrotation Xrotation
							JOINT lwrist
							{
								OFFSET 0.265709 0.012698 -0.007375
								CHANNELS 3 Zrotation Yrotation Xrotation
								End Site
								{
									OFFSET 0.000000 0.000000 0.000000
								}
							}
						}
					}
				}
				JOINT rclavicle
				{
					OFFSET -0.082954 0.112472 -0.023707
					CHANNELS 3 Zrotation Yrotation Xrotation
					JOINT rshoulder
					{
						OFFSET -0.113228 0.046853 -0.008472
						CHANNELS 3 Zrotation Yrotation Xrotation
						JOINT relbow
						{
							OFFSET -0.260127 -0.014369 -0.031269
							CHANNELS 3 Zrotation Yrotation Xrotation
							JOINT rwrist
							{
								OFFSET -0.269108 0.006794 -0.006027
								CHANNELS 3 Zrotation Yrotation Xrotation
								End Site
								{
									OFFSET 0.000000 0.000000 0.000000
								}
							}
						}
					}
				}
			}
		}
	}
}
MOTION
Frames: 8
Frame Time: 0.033333
1.763283 1.582698 0.999888 -99.807645 -4.460437 94.837166 -2.828173 -9.138582 -20.390357 -6.518477 6.695719 12.409993 9.100432 21.244707 -3.547398 0.000000 -0.000000 0.000000 -8.692717 -1.774292 -23.289554 -1.551031 -6.957210 58.774395 6.686780 -17.285575 -0.785174 0.000000 -0.000000 0.000000 -3.012355 -0.163872 13.096345 -1.197257 1.786436 -16.511146 -0.676084 -0.817425 4.077819 -2.935465 3.335275 0.553650 0.233015 14.780945 17.935847 -22.384208 10.764330 1.050830 -32.599854 2.882798 26.887136 -121.997455 -72.573821 114.747273 10.365389 -12.319233 -48.608167 19.936816 -5.380151 -0.385455 37.060109 -4.217161 32.871567 99.612988 78.103017 87.773837 -0.464908 15.094943 -41.297708 
1.743822 1.583893 1.001439 -98.970749 -4.016555 94.217610 -3.162477 -8.443614 -18.294622 -6.633681 5.142616 12.568867 8.718601 21.396029 -5.093532 0.000000 -0.000000 0.000000 -7.874456 -0.652094 -26.351366 -0.553812 -7.324492 58.146050 7.803542 -16.128036 -2.671518 0.000000 -0.000000 0.000000 -2.604273 -1.283749 14.061143 -0.913318 2.098321 -16.410008 -0.574337 -0.911388 3.985499 -2.779926 3.665246 1.221758 -0.363800 14.753792 17.484381 -22.677225 11.069703 1.231379 -32.624465 2.950717 27.071404 -122.582514 -72.746452 115.801524 9.879030 -12.353754 -48.520752 19.988682 -5.516454 -0.191371 36.567941 -3.938056 33.006835 101.121143 77.869300 89.787347 -0.157374 15.090899 -42.167547 
1.723661 1.585113 1.003022 -98.535291 -3.594906 93.686411 -3.521180 -7.775594 -16.094900 -6.471286 3.890200 12.531129 8.458042 21.615585 -6.656139 0.000000 -0.000000 0.000000 -7.169737 0.757063 -28.957722 0.101384 -7.705611 55.204728 8.455684 -15.662489 -3.879113 0.000000 -0.000000 0.000000 -2.246426 -2.267089 15.043728 -0.802925 2.508389 -16.628978 -0.351254 -0.837368 4.036728 -2.796812 3.814552 1.864319 -0.630474 15.193964 17.193547 -22.936509 11.504037 0.921129 -32.843945 2.974697 27.198130 -122.571687 -72.952094 115.483121 10.285730 -12.616945 -47.721177 20.027200 -5.695472 -0.198514 36.295058 -3.945195 33.234528 103.039165 78.132419 91.677568 -0.459826 15.098455 -42.015881 
1.698877 1.586889 1.003659 -97.951262 -3.219825 93.587864 -3.807184 -7.178934 -13.927270 -6.336167 2.681378 12.247893 8.118980 21.591373 -8.309135 0.000000 -0.000000 0.000000 -6.665819 2.125338 -32.034331 0.490515 -8.205284 48.752030 8.440189 -16.517145 -4.762508 0.000000 -0.000000 0.000000 -1.749455 -3.417129 15.307006 -0.699205 2.881461 -16.604189 -0.135976 -0.922820 3.975328 -2.910631 3.843157 2.855476 -0.841650 15.797043 17.168102 -23.323576 12.003828 1.203999 -32.829821 2.889797 27.132883 -122.370679 -73.267052 115.192070 10.404643 -12.836487 -47.538455 20.088471 -5.973467 0.404829 35.859733 -3.335043 33.236603 104.658215 78.322427 93.604528 -0.760201 15.167185 -42.361820 
1.683718 1.588402 1.003855 -97.674262 -3.047554 93.494166 -3.926187 -6.628925 -12.501359 -6.346615 1.921671 11.983474 7.737782 21.547571 -9.382010 0.000000 -0.000000 0.000000 -6.468792 2.749899 -33.145228 0.647877 -8.334597 43.482053 8.509002 -17.146689 -5.139002 0.000000 -0.000000 0.000000 -1.581649 -3.946871 15.547616 -0.650769 3.076546 -16.530446 0.016961 -1.033159 4.128221 -2.885731 4.182647 2.981220 -1.164447 16.431589 17.082617 -23.677841 12.646222 0.815199 -32.510746 2.459146 27.383628 -122.191231 -73.141432 114.905972 10.621355 -12.795338 -47.551993 20.549665 -6.465913 0.168741 35.073040 -2.672212 33.669592 106.136755 78.283732 95.024260 -0.987260 15.083758 -42.648871 
1.663387 1.590523 1.003343 -97.235328 -2.861243 93.591596 -4.066273 -5.896650 -11.032712 -6.260379 1.098827 11.997148 7.276135 21.273073 -10.832006 0.000000 -0.000000 0.000000 -6.230704 3.119976 -34.086142 0.798317 -8.081784 35.006706 8.574725 -17.494421 -4.601247 0.000000 -0.000000 0.000000 -1.171895 -4.503037 15.575640 -0.696210 3.108450 -16.608105 0.216942 -1.138827 4.160801 -3.176435 4.009779 3.426559 -1.025324 17.013308 17.122691 -23.722764 12.812533 1.183564 -32.498216 2.282696 27.094155 -122.107639 -73.039319 115.068656 10.715294 -13.109803 -47.542727 20.517864 -6.585571 0.766400 34.810862 -2.187093 33.331643 108.484765 78.436932 97.700194 -0.952439 15.091529 -42.850976 
1.641802 1.593725 1.002488 -96.796833 -2.548080 93.466145 -3.949228 -4.693645 -9.323921 -6.183448 0.304880 12.231203 6.604489 20.563219 -12.510622 0.000000 -0.000000 0.000000 -5.592118 3.006525 -33.528388 0.838568 -7.313159 24.626773 8.669320 -17.054253 -3.048953 0.000000 -0.000000 0.000000 -0.693982 -4.769347 15.822121 -0.643267 2.955845 -16.625071 0.497106 -1.287250 3.924701 -3.678088 3.810486 3.927242 -0.789719 17.599830 17.236108 -23.940027 12.770265 1.682744 -32.290820 2.313550 26.676028 -122.119803 -72.956577 115.124384 10.624205 -13.398393 -47.207310 20.597916 -6.487484 1.662516 34.213732 -1.871429 32.853636 111.643089 78.581088 100.953027 -1.041725 14.796380 -43.072050 
1.620024 1.597519 1.000412 -96.282115 -2.440611 93.633217 -3.920543 -3.605129 -8.072959 -6.095012 -0.477930 12.714962 5.946523 19.846682 -14.233786 0.000000 -0.000000 0.000000 -4.993511 2.803923 -32.842814 0.342785 -5.897013 14.305322 9.393039 -16.009387 -1.434700 0.000000 -0.000000 0.000000 -0.354081 -4.953714 15.908694 -0.636596 2.760871 -16.981090 0.655327 -1.318045 4.070642 -3.905968 3.771732 3.787604 -0.615904 17.660699 17.304182 -23.971538 12.850856 1.971758 -31.921655 1.892513 26.517016 -121.288064 -72.671619 113.954073 10.641253 -13.500691 -47.017183 20.999875 -6.796985 1.772443 33.413256 -1.447059 32.380758 112.887739 78.183219 102.022319 -1.526852 14.821074 -43.055965 
